{
  "asset": {
    "generator": "Khronos glTF Blender I/O v3.4.50",
    "version": "2.0"
  },
  "extensionsUsed": [
    "KHR_materials_specular",
    "KHR_materials_ior",
    "KHR_texture_transform"
  ],
  "extensionsRequired": ["KHR_texture_transform"],
  "scene": 0,
  "scenes": [
    {
      "name": "Scene",
      "nodes": [0]
    }
  ],
  "nodes": [
    {
      "mesh": 0,
      "name": "Cylinder.001"
    }
  ],
  "materials": [
    {
      "doubleSided": true,
      "extensions": {
        "KHR_materials_specular": {
          "specularColorFactor": [
            0.3557036563006025, 0.3557036563006025, 0.3557036563006025
          ]
        },
        "KHR_materials_ior": {
          "ior": 1.4500000476837158
        }
      },
      "name": "Material1",
      "normalTexture": {
        "index": 0,
        "scale": 0.09999993443489075
      },
      "pbrMetallicRoughness": {
        "baseColorTexture": {
          "index": 1
        },
        "metallicFactor": 0,
        "roughnessFactor": 0.7954545617103577
      }
    },
    {
      "doubleSided": true,
      "extensions": {
        "KHR_materials_specular": {
          "specularColorFactor": [
            0.323366957060913, 0.323366957060913, 0.323366957060913
          ]
        },
        "KHR_materials_ior": {
          "ior": 1.4500000476837158
        }
      },
      "name": "Material2",
      "normalTexture": {
        "extensions": {
          "KHR_texture_transform": {
            "offset": [0, -1],
            "scale": [2, 2]
          }
        },
        "index": 2,
        "scale": 0.09999999403953552
      },
      "pbrMetallicRoughness": {
        "baseColorTexture": {
          "extensions": {
            "KHR_texture_transform": {
              "offset": [0, -1],
              "scale": [2, 2]
            }
          },
          "index": 3
        },
        "metallicFactor": 0,
        "roughnessFactor": 0.2136363685131073
      }
    },
    {
      "doubleSided": true,
      "extensions": {
        "KHR_materials_specular": {
          "specularColorFactor": [
            2.371357614441398, 2.371357614441398, 2.371357614441398
          ]
        },
        "KHR_materials_ior": {
          "ior": 1.4500000476837158
        }
      },
      "name": "Material3",
      "pbrMetallicRoughness": {
        "roughnessFactor": 0.15000000596046448
      }
    }
  ],
  "meshes": [
    {
      "name": "Cylinder.001",
      "primitives": [
        {
          "attributes": {
            "POSITION": 0,
            "TEXCOORD_0": 1,
            "NORMAL": 2
          },
          "indices": 3,
          "material": 0
        },
        {
          "attributes": {
            "POSITION": 4,
            "TEXCOORD_0": 5,
            "NORMAL": 6
          },
          "indices": 7,
          "material": 1
        },
        {
          "attributes": {
            "POSITION": 8,
            "TEXCOORD_0": 9,
            "NORMAL": 10
          },
          "indices": 11,
          "material": 2
        }
      ]
    }
  ],
  "textures": [
    {
      "sampler": 0,
      "source": 0
    },
    {
      "sampler": 0,
      "source": 1
    },
    {
      "sampler": 0,
      "source": 2
    },
    {
      "sampler": 0,
      "source": 3
    }
  ],
  "images": [
    {
      "bufferView": 4,
      "mimeType": "image/png",
      "name": "leather_nor"
    },
    {
      "bufferView": 5,
      "mimeType": "image/png",
      "name": "leather_alb"
    },
    {
      "bufferView": 10,
      "mimeType": "image/png",
      "name": "plastic_nor"
    },
    {
      "bufferView": 11,
      "mimeType": "image/png",
      "name": "plastic_alb"
    }
  ],
  "accessors": [
    {
      "bufferView": 0,
      "componentType": 5126,
      "count": 3360,
      "max": [0.26466912031173706, 0.9397184252738953, 0.2552584111690521],
      "min": [-0.3760034441947937, 0.38552019000053406, -0.2555484175682068],
      "type": "VEC3"
    },
    {
      "bufferView": 1,
      "componentType": 5126,
      "count": 3360,
      "type": "VEC2"
    },
    {
      "bufferView": 2,
      "componentType": 5126,
      "count": 3360,
      "type": "VEC3"
    },
    {
      "bufferView": 3,
      "componentType": 5123,
      "count": 17910,
      "type": "SCALAR"
    },
    {
      "bufferView": 6,
      "componentType": 5126,
      "count": 2074,
      "max": [0.23730729520320892, 0.8356828689575195, 0.2436124086380005],
      "min": [-0.4068143367767334, -1.7732527339830995e-6, -0.243612140417099],
      "type": "VEC3"
    },
    {
      "bufferView": 7,
      "componentType": 5126,
      "count": 2074,
      "type": "VEC2"
    },
    {
      "bufferView": 8,
      "componentType": 5126,
      "count": 2074,
      "type": "VEC3"
    },
    {
      "bufferView": 9,
      "componentType": 5123,
      "count": 10212,
      "type": "SCALAR"
    },
    {
      "bufferView": 12,
      "componentType": 5126,
      "count": 1278,
      "max": [0.03461823984980583, 0.7198094725608826, 0.04202892631292343],
      "min": [-0.39111435413360596, 0.06838846951723099, -0.04207153990864754],
      "type": "VEC3"
    },
    {
      "bufferView": 13,
      "componentType": 5126,
      "count": 1278,
      "type": "VEC2"
    },
    {
      "bufferView": 14,
      "componentType": 5126,
      "count": 1278,
      "type": "VEC3"
    },
    {
      "bufferView": 15,
      "componentType": 5123,
      "count": 5976,
      "type": "SCALAR"
    }
  ],
  "bufferViews": [
    {
      "buffer": 0,
      "byteLength": 40320,
      "byteOffset": 0,
      "target": 34962
    },
    {
      "buffer": 0,
      "byteLength": 26880,
      "byteOffset": 40320,
      "target": 34962
    },
    {
      "buffer": 0,
      "byteLength": 40320,
      "byteOffset": 67200,
      "target": 34962
    },
    {
      "buffer": 0,
      "byteLength": 35820,
      "byteOffset": 107520,
      "target": 34963
    },
    {
      "buffer": 0,
      "byteLength": 431768,
      "byteOffset": 143340
    },
    {
      "buffer": 0,
      "byteLength": 341928,
      "byteOffset": 575108
    },
    {
      "buffer": 0,
      "byteLength": 24888,
      "byteOffset": 917036,
      "target": 34962
    },
    {
      "buffer": 0,
      "byteLength": 16592,
      "byteOffset": 941924,
      "target": 34962
    },
    {
      "buffer": 0,
      "byteLength": 24888,
      "byteOffset": 958516,
      "target": 34962
    },
    {
      "buffer": 0,
      "byteLength": 20424,
      "byteOffset": 983404,
      "target": 34963
    },
    {
      "buffer": 0,
      "byteLength": 439000,
      "byteOffset": 1003828
    },
    {
      "buffer": 0,
      "byteLength": 183819,
      "byteOffset": 1442828
    },
    {
      "buffer": 0,
      "byteLength": 15336,
      "byteOffset": 1626648,
      "target": 34962
    },
    {
      "buffer": 0,
      "byteLength": 10224,
      "byteOffset": 1641984,
      "target": 34962
    },
    {
      "buffer": 0,
      "byteLength": 15336,
      "byteOffset": 1652208,
      "target": 34962
    },
    {
      "buffer": 0,
      "byteLength": 11952,
      "byteOffset": 1667544,
      "target": 34963
    }
  ],
  "samplers": [
    {
      "magFilter": 9729,
      "minFilter": 9987
    }
  ],
  "buffers": [
    {
      "byteLength": 1679496,
      "uri": "data:application/octet-stream;base64,"
    }
  ]
}
